<?xml version="1.0" encoding="utf-8"?>
<!-- Generator: Adobe Illustrator 23.0.5, SVG Export Plug-In . SVG Version: 6.00 Build 0)  -->
<svg version="1.1" xmlns="http://www.w3.org/2000/svg" xmlns:xlink="http://www.w3.org/1999/xlink" x="0px" y="0px"
	 viewBox="0 0 266.19 164.33" style="enable-background:new 0 0 266.19 164.33;" xml:space="preserve">
<style type="text/css">
	.st0{fill:#01C000;}
	.st1{fill:#005DFC;}
	.st2{fill:#E90614;}
	.st3{fill:#FFFD00;}
	.st4{fill:#FFFFFF;}
</style>
<g id="Calque_2">
	<path class="st0" d="M42.15,12.26v141.58l29.3-9.26c2.37-24.47,8.45-76.89,20.08-116.72L42.15,12.26z"/>
	<path class="st0" d="M128.83,79.48c23.56,13.74,23.59,23.69,80.99,21.37l56.36-17.81l-158.6-50.12
		C108.11,48.76,112.2,69.78,128.83,79.48z"/>
	<path class="st1" d="M139.35,86.22c-16.59-10.26-31.24-37.46-31.77-53.29l-16.05-5.07c-11.63,39.83-17.71,92.25-20.08,116.72
		l138.38-43.72C179.1,101.19,164.74,101.92,139.35,86.22z"/>
	<g>
		<path class="st2" d="M143.88,81.68l-13.8,3.29v2.28h-4.75v-1.14L113,89.05v3.1h-4.75v-1.97l-13.51,3.22v2.38h-4.75v-1.25
			l-13.06,3.12v2.88h-4.75v-1.75l-1.53,0.37v9.99h6.58c10.39-21.89,11.23-3.27,11.23-3.27l7.32-0.15
			c8.26-22.28,10.49-2.72,10.49-2.72h7.27c0-1.19,2.33-11.49,7.38-11.68c3.34-0.13,4.4,8.06,4.4,8.06l6.24-0.5
			c-0.15-4.16,3.85-11.64,6.63-11.94c5.31-0.56,5.69,9.07,5.69,9.07l4.75,0.5V83.45h-4.75V81.68z"/>
		<polygon class="st3" points="94.74,88.52 89.99,88.52 89.99,94.54 94.74,93.41 		"/>
		<polygon class="st2" points="94.74,95.79 94.74,93.41 89.99,94.54 89.99,95.79 		"/>
		<polygon class="st3" points="76.52,93.22 72.18,93.27 72.18,98.79 76.52,97.61 		"/>
		<polygon class="st2" points="76.93,100.54 76.93,97.66 72.18,98.79 72.18,100.54 		"/>
		<polygon class="st3" points="113,84.88 108.25,84.88 108.25,90.18 113,89.05 		"/>
		<polygon class="st2" points="113,92.15 113,89.05 108.25,90.18 108.25,92.15 		"/>
		<polygon class="st3" points="130.07,79.98 125.32,79.98 125.32,86.11 130.07,84.98 		"/>
		<polygon class="st2" points="130.07,87.25 130.07,84.98 125.32,86.11 125.32,87.25 		"/>
		<polygon class="st3" points="143.65,76.18 143.65,81.68 148.4,80.55 148.4,76.18 		"/>
		<polygon class="st2" points="143.88,83.45 148.63,83.45 148.63,80.55 143.88,81.68 		"/>
	</g>
	<path class="st4" d="M9.69,2v162.09l32.46-10.26V12.26L9.69,2z M33.14,154.04c-1.53,0.17-3.22,0.25-5.05,0.25
		c-4.53,0-7.95-0.85-10.26-2.55c-2.31-1.7-3.46-4.2-3.46-7.5c0-3.51,1.15-6.15,3.46-7.93c2.31-1.78,5.73-2.67,10.26-2.67
		c1.72,0,3.26,0.09,4.63,0.28c1.37,0.19,2.69,0.43,3.96,0.72l-1.15,2.06c-0.61-0.14-1.21-0.26-1.8-0.38
		c-0.59-0.11-1.19-0.2-1.79-0.28c-0.6-0.07-1.22-0.13-1.85-0.17c-0.64-0.04-1.3-0.06-2-0.06c-1.64,0-3.06,0.18-4.24,0.55
		c-1.19,0.37-2.16,0.9-2.93,1.6c-0.77,0.7-1.34,1.55-1.71,2.56c-0.37,1.01-0.56,2.15-0.56,3.43c0,1.32,0.19,2.48,0.56,3.49
		c0.37,1.01,0.94,1.86,1.71,2.55c0.77,0.69,1.75,1.21,2.93,1.57c1.18,0.35,2.6,0.53,4.24,0.53c1.51,0,2.95-0.08,4.31-0.24
		c1.36-0.16,2.72-0.37,4.06-0.63l1.04,2.14C36.13,153.66,34.67,153.87,33.14,154.04z M35.97,122.16l-3.7-6.81H21.15l-3.7,6.81h-3.74
		l11.15-20.01h3.69l11.15,20.01H35.97z M28.04,74.25c1.53,0,2.96,0.1,4.29,0.3c1.33,0.2,2.48,0.52,3.46,0.97
		c0.98,0.45,1.75,1.04,2.32,1.76c0.56,0.72,0.85,1.6,0.85,2.64c0,1.16-0.32,2.11-0.97,2.84c-0.65,0.73-1.53,1.31-2.63,1.74
		c-1.1,0.43-2.39,0.72-3.85,0.88c-1.46,0.16-3,0.24-4.62,0.24c-0.88,0-1.74-0.02-2.58-0.06c-0.84-0.04-1.63-0.08-2.38-0.13v8.82
		h-4.31V74.25H28.04z M17.61,65.51V45.5h10.43c1.53,0,2.96,0.1,4.29,0.3c1.33,0.2,2.48,0.52,3.46,0.97
		c0.98,0.45,1.75,1.04,2.32,1.76c0.56,0.72,0.85,1.61,0.85,2.64c0,1.16-0.32,2.11-0.97,2.84c-0.65,0.73-1.53,1.31-2.63,1.74
		c-1.1,0.43-2.39,0.72-3.85,0.88c-1.46,0.16-3,0.24-4.62,0.24c-0.88,0-1.74-0.02-2.58-0.06c-0.84-0.04-1.63-0.08-2.38-0.13v8.82
		H17.61z M35.97,35.48l-3.7-6.81H21.15l-3.7,6.81h-3.74l11.15-20.01h3.69L39.7,35.48H35.97z"/>
	<polygon class="st4" points="22.3,113.22 31.12,113.22 26.7,105.08 	"/>
	<path class="st4" d="M26.69,83.53c1.17,0,2.25-0.04,3.23-0.13c0.98-0.09,1.82-0.26,2.51-0.52c0.69-0.26,1.23-0.63,1.62-1.1
		c0.39-0.47,0.58-1.09,0.58-1.85c0-0.7-0.16-1.27-0.49-1.73c-0.32-0.46-0.78-0.83-1.36-1.11c-0.58-0.28-1.27-0.47-2.08-0.58
		c-0.81-0.11-1.7-0.17-2.68-0.17h-6.12v7.01c0.74,0.06,1.52,0.1,2.33,0.13C25.06,83.51,25.87,83.53,26.69,83.53z"/>
	<path class="st4" d="M26.69,54.79c1.17,0,2.25-0.04,3.23-0.13c0.98-0.09,1.82-0.26,2.51-0.52c0.69-0.26,1.23-0.63,1.62-1.1
		c0.39-0.47,0.58-1.09,0.58-1.85c0-0.7-0.16-1.27-0.49-1.73c-0.32-0.46-0.78-0.83-1.36-1.11c-0.58-0.28-1.27-0.47-2.08-0.58
		c-0.81-0.11-1.7-0.17-2.68-0.17h-6.12v7.01c0.74,0.06,1.52,0.1,2.33,0.13C25.06,54.77,25.87,54.79,26.69,54.79z"/>
	<polygon class="st4" points="22.3,26.53 31.12,26.53 26.7,18.39 	"/>
</g>
<g id="Calque_1">
	<path class="st4" d="M86.17,185.17"/>
</g>
</svg>
