<svg id="Capa_1" data-name="Capa 1" xmlns="http://www.w3.org/2000/svg" viewBox="0 0 1099.53 423.77"><defs><style>.cls-1,.cls-2,.cls-3{fill:#fff;}.cls-2{font-size:197px;letter-spacing:0.2em;}.cls-2,.cls-3{font-family:OCRAExtended, OCR A Extended;}.cls-3{font-size:105px;letter-spacing:-0.02em;}</style></defs><title>logo-appac-white</title><path class="cls-1" d="M275.21,244c0,42.31-.12,84.63.14,126.94,0,6.2-1.31,8.28-7.92,8.23-38.76-.32-77.54-.14-116.31-.15-7.64,0-7.67,0-4.38-7.05q50.17-107,100.35-213.88c6.95-14.83,13.9-29.65,20.7-44.54,1.24-2.71,2.59-4.73,5.83-4s2,3.53,2,5.49q.09,64.47,0,129Z" transform="translate(-127.47 -62.87)"/><path class="cls-1" d="M294.17,78.79c1,30.58.42,61.17.18,91.75-.05,5.15,1.12,8.66,5.85,11.34,5.95,3.38,11.44,7.56,17.14,11.37,1.09.74,2.67,1.46,1.64,3-1.16,1.72-2.25,0-3.23-.61-6.67-4.32-13.31-8.68-20-13-2.08,1.13-1.23,3.12-1.23,4.71,0,73.15,0,146.29-.19,219.44,0,5.78,1.31,7.35,7.24,7.37,19.06.06,38.11.91,57.16,1.43,2.61.07,5.23,0,8.06,0-1.17-6.55-5.52-11.85-4-19,2.06,5,4.18,10,6.17,15.1,1,2.6,2.06,4.43,5.55,4.39,18.59-.19,37.18-.09,55.71-.09-5.38-9.41-15.54-17.28-19.84-29.19q11.29,13.5,22.57,27c1.69,2.05,3.08,4.51,6.3,4.08,4.82-.65,5.76,1.56,5.69,6.07-.08,4.87-2.75,4.48-6,4.55-82.44,1.57-164.88,3.21-247.34,2.4-5.58-.06-8.35.9-7.13,7.1.46,2.35.1,4.86.12,7.3,0,1.7.75,3.85-1.47,4.6-2.62.89-2.48-1.28-3.07-3-.81-2.39-2.05-.23-2.92.21-5,2.51-8.53,6.22-9.83,11.82-.38,1.61-.5,4.26-2.93,3.42-2-.69-1.22-3.2-.59-4.69,2.91-6.76,6.24-13.19,14.82-14.11,2-.21,2.33-2.08,2.33-8.29,0-2.64,0-4.68-3.58-4.81-8.85-.31-17.68-1-26.33-3.17-4.72-1.18-9.43-2.42-13.69-4.87-5.76-3.32-10.89-14.5-9.68-20.62a2.5,2.5,0,0,1,2.68-2.28c1.68-.11,3.16.18,3.7,2s.93,3.86,1.52,5.76c1.56,5.08,4.81,7.41,10.35,7.3,28.59-.56,57.18-1,85.77-1.19,4.78,0,7.75-1.3,10.08-5.47,2.91-5.22,6.33-10.15,7.31-16.23.23-1.45.14-3.64,2.43-3,2,.61,1,2.64.76,4-1.15,7.16-5.8,12.81-8.86,19.55,6,1.9,12,1.05,17.84.93,7.7-.16,18,3.43,22.43-1.19,4.7-4.89,1.41-15.15,1.41-23.06q.06-159.27,0-318.53c0-3.34-1.76-8.09,4.92-7.55,2.6.21,4,.76,4.64,3.43a62,62,0,0,0,2.33,6.89A11.45,11.45,0,0,0,294.17,78.79Z" transform="translate(-127.47 -62.87)"/><path class="cls-1" d="M324.51,149.15q15.92,49.86,31.86,99.73Q367,282,378.05,315c1.14,3.38.95,5.45-1.8,8-9.66,9-19,18.43-29.22,28.42-8.38-67.64-14.11-135.17-24.12-202.18A1.08,1.08,0,0,1,324.51,149.15Z" transform="translate(-127.47 -62.87)"/><path class="cls-1" d="M373.54,391.28l-17-5c-1.34-.39-2.41-1-2.64-2.56q-1.51-10.51-3.08-21c-.34-2.3,1.15-3.67,2.59-5.08,8.84-8.71,17.74-17.35,26.45-26.18,2.51-2.55,3.72-3.19,5.28.82,5.55,14.23,11.39,28.34,17.12,42.5.76,1.88,1.68,3.71-1.1,4.92-8.52,3.71-17,7.54-25.51,11.27A7.4,7.4,0,0,1,373.54,391.28Z" transform="translate(-127.47 -62.87)"/><path class="cls-1" d="M324.51,149.15l-1.6.07C315,127.46,308,105.34,299.18,83.92a40.11,40.11,0,0,0-2.56-6.09c-2-3.19-1.43,1.11-2.45,1-.31-2.47-.79-5,2.77-5.56C308,97.86,316.65,123.36,324.51,149.15Z" transform="translate(-127.47 -62.87)"/><path class="cls-1" d="M163.2,466.36c2.22,0,2.78,1.07,3,2.54,1.16,7.94,6.07,12.35,13.55,14.34,1.16.31,3,.38,2.51,2.25s-2.15.93-3.32.73c-8-1.31-15.05-8.25-16.37-16.14C162.32,468.62,161.85,467.12,163.2,466.36Z" transform="translate(-127.47 -62.87)"/><path class="cls-1" d="M191.24,486.24a1.83,1.83,0,0,1-2.32-.66c-.65-1.24.06-2.12,1.24-2.51,7.26-2.37,11.25-7.35,12.06-14.92.21-2,1.6-2.54,3.31-2.26,3.11.52.82,2.42.61,3.44C204.51,477.39,197,485.81,191.24,486.24Z" transform="translate(-127.47 -62.87)"/><path class="cls-1" d="M189.6,442.9c5.19-.33,15.83,12,14.6,16.93a2.43,2.43,0,0,1-1.11,1.45,1.36,1.36,0,0,1-2.08-.86c-1.36-7.24-6.07-11.42-12.55-14.13a1.76,1.76,0,0,1-.93-2.23C187.87,443,188.67,442.85,189.6,442.9Z" transform="translate(-127.47 -62.87)"/><text class="cls-2" transform="translate(305.53 199.98)">APPAC</text><text class="cls-3" transform="translate(315.53 316.63)">Arzal-Camoël</text><rect class="cls-1" x="326.53" y="222.13" width="359" height="3"/><rect class="cls-1" x="685.53" y="222.13" width="359" height="3"/></svg>