<?xml version="1.0" encoding="utf-8"?>
<!-- Generator: Adobe Illustrator 23.0.6, SVG Export Plug-In . SVG Version: 6.00 Build 0)  -->
<svg version="1.1" id="Calque_1" xmlns="http://www.w3.org/2000/svg" xmlns:xlink="http://www.w3.org/1999/xlink" x="0px" y="0px"
	 viewBox="0 0 525.23 653.71" style="enable-background:new 0 0 525.23 653.71;" xml:space="preserve">
<style type="text/css">
	.st0{fill-rule:evenodd;clip-rule:evenodd;fill:#232E5C;}
	.st1{fill-rule:evenodd;clip-rule:evenodd;fill:#244147;}
	.st2{fill-rule:evenodd;clip-rule:evenodd;fill:#18848E;}
	.st3{fill-rule:evenodd;clip-rule:evenodd;fill:#FCC10C;}
	.st4{fill-rule:evenodd;clip-rule:evenodd;fill:url(#SVGID_1_);}
	.st5{fill:#232E5C;}
</style>
<path class="st0" d="M12.54,536.33"/>
<path class="st0" d="M42.56,319.82C124.66,228.4,162.69,121.18,167.29,0c4.6,5.93,8.65,11.07,12.6,16.27
	c3.96,5.2,7.85,10.46,11.73,15.72c14.59,19.77,26.33,41.27,37.69,62.96c10.46,19.98,18.22,41.16,23.73,62.95
	c3.42,13.56,4.88,27.68,6.36,41.64c1.1,10.35,1.28,20.86,1.05,31.28c-0.45,19.96-3.88,39.44-12.98,57.41
	c-5.18,10.22-11.41,19.91-17.2,29.82c-0.67,1.15-1.5,2.19-2.29,3.32c-8.79-7.52-16.46-15.45-27.2-17.68
	c-10.54-2.18-21.34-3.3-32.08-4.17c-7.95-0.64-16.03-0.66-23.98,0c-12.07,1.01-24.2,2.18-36.07,4.48
	c-18.69,3.62-37.19,8.19-55.75,12.46C49.83,317.19,46.88,318.41,42.56,319.82z"/>
<path class="st1" d="M23.36,461.4c-6.07,0-14.69,1.47-20.31,1.09c-1.23-0.08-0.28-3.48-0.35-4.76c-0.59-11.42,0.05-23.65-0.39-35.08
	c-0.38-10.03,0.52-18.79-0.03-29.8c4.5,0,6.47-0.48,10.72-0.47c5.5,0.01,11,0.04,16.5,0.04c23.38,0,46.76,0.12,70.15-0.02
	c42.1-0.25,84.2-0.63,126.29-1.01c2.15-0.02,4.29-0.5,7.99-0.97c-7.58-2.99-13.74-5.74-20.1-7.86
	c-18.96-6.3-37.78-13.18-57.08-18.22c-14.93-3.9-30.45-5.69-45.8-7.81c-9.3-1.29-18.76-1.9-28.16-1.98
	c-12.95-0.12-25.95,0.03-38.86,1.03c-11.88,0.92-23.66,3.18-35.5,4.73c-2.19,0.29-4.45,0.04-6.88-1.11c6.56-2.93,13-6.15,19.7-8.73
	c9.09-3.5,18.19-7.2,27.6-9.57c13.56-3.42,27.34-6.13,41.15-8.37c13.57-2.2,27.27-4.04,40.98-4.88c10.87-0.66,21.92-0.18,32.77,0.9
	c13.8,1.37,27.63,3.18,41.19,6.04c17.44,3.68,33.9,10.57,50.26,17.65c25.39,11,50.75,22.24,77.9,28.29
	c12.88,2.87,25.98,4.82,39.03,6.84c41.55,6.43,83.44,3.32,125.19,4.04c0.82,0.01,1.64,0.08,2.84,0.14c0.13,1.3,0.38,2.57,0.36,3.83
	c-0.31,20.93-0.67,41.87-0.96,62.8c-0.04,2.89-0.68,3.56-4,3.49c-10.25-0.21-20.52,0.32-30.77,0.79c-4.07,0.19-5.79-0.59-6.6-5.36
	c-4.16-24.28-20.44-36.97-43.12-42.6c-19.41-4.81-37.67-1.93-54.18,9.83c-12.61,8.98-19.45,21.4-21.59,37.05
	c-10.98,0-21.95,0.08-32.91-0.14c-0.97-0.02-2.62-1.95-2.75-3.12c-2.28-20.67-14.55-33.42-32.89-40.92
	c-11.26-4.6-23-5.99-35.43-5.11c-13,0.93-24.76,4.13-35.49,11.26c-11.7,7.78-19.38,18.29-21.34,32.52
	c-0.33,2.39-1.43,3.77-4.25,3.56c-10.53-0.79-21.08-1.27-31.58-2.23c-1.71-0.16-4.35-1.87-4.72-3.33
	c-3.69-14.6-12.57-25-25.53-31.98c-22.29-12-44.87-12.07-66.74,0.64C31.38,430.85,24.45,444.34,23.36,461.4z"/>
<path class="st2" d="M241.22,335.77c0.6-2.8,0.57-4.9,1.47-6.45c6.66-11.36,13.31-22.74,20.47-33.78c1.54-2.38,4.93-4.13,7.82-4.99
	c19-5.65,37.97-11.48,57.2-16.24c13.9-3.44,28.14-5.57,42.29-7.85c16.14-2.59,32.33-4.87,48.54-6.95
	c8.48-1.08,17.07-1.25,25.57-2.16c9.43-1,18.82-2.4,28.23-3.58c4.07-0.51,8.14-1.15,12.23-1.32c11.26-0.47,22.53-0.82,33.79-1.01
	c6.51-0.11,8.11,2.24,4.49,7.31c-8.18,11.43-16.49,22.81-25.47,33.61c-7.04,8.47-14.73,16.53-22.93,23.88
	c-8.01,7.18-16.48,14.17-25.73,19.55c-10.6,6.17-22.86,7.06-34.72,3.93c-16.63-4.39-32.89-10.21-49.56-14.41
	c-11.34-2.86-23.11-4.08-34.71-5.9c-19.13-3-37.48,0.97-55.63,6.49c-9.66,2.94-19.29,5.96-28.95,8.92
	C244.56,335.16,243.43,335.31,241.22,335.77z"/>
<path class="st2" d="M265.42,342.84c6.57-2.08,13.02-4.72,19.74-6.1c9.42-1.93,19.03-4,28.58-4.11c21.42-0.25,42.07,4.74,62.5,10.97
	c16.62,5.07,33.36,10.15,50.39,13.39c10.33,1.97,21.33,0.22,32.02,0.55c12.13,0.38,23.08-3.77,34.05-8.05
	c0.4-0.16,0.96,0.09,2.7,0.32c-3.17,2.83-5.5,5.38-8.26,7.3c-12.91,8.98-27.48,13.87-42.69,17.36c-16.83,3.86-33.9,3.61-50.84,2.73
	c-23.33-1.2-40.8-3.55-65.47-8.93c-8.72-1.9-21.03-6.2-29.46-9.07c-6.97-2.37-13.43-6.22-20.17-9.29
	c-4.26-1.94-8.62-3.65-12.93-5.46C265.52,343.91,265.47,343.37,265.42,342.84z"/>
<path class="st2" d="M408.27,256.98c-3.8-2.91-7.43-6.08-11.46-8.63c-2.34-1.49-5.27-2.68-7.99-2.82
	c-13.55-0.67-26.78,1.85-39.95,4.72c-5.72,1.25-11.52,2.22-17.2,3.62c-5.64,1.39-10.09,4.63-12.91,9.83
	c-1.89,3.49-4.72,5.31-8.57,6.56c-11.6,3.75-23.03,8.02-34.54,12.06c-0.42,0.15-0.96-0.04-2.37-0.13
	c4.53-7.71,8.79-15.04,13.13-22.32c3.5-5.87,6.76-11.95,10.81-17.42c1.95-2.64,5.24-5.1,8.37-5.91c11.95-3.09,24.04-5.7,36.16-8.07
	c8.65-1.69,17.39-3.13,26.16-3.85c3.27-0.27,7.14,1.13,10.03,2.9c12.16,7.47,22.21,17.39,31.17,28.43
	C408.84,256.29,408.56,256.63,408.27,256.98z"/>
<path class="st3" d="M380.41,58.8c-52.1,0-94.33,42.23-94.33,94.33c0,25.24,9.91,48.16,26.05,65.09c7.29-0.99,18.56-2.54,21-2.98
	c3.67-0.67,14.75-2.67,14.75-2.67s20.3-5.89,30.44-0.28c10.14,5.61,25.14,17.61,25.14,17.61l14.2,9.91
	c33.57-14.45,57.08-47.82,57.08-86.69C474.74,101.03,432.51,58.8,380.41,58.8z"/>
<path class="st0" d="M233.94,390.41c0,0,43.29,13.5,85.2,12c41.91-1.5,71.19-12.8,71.19-12.8l-15.78-1.88c0,0-37.67-1.55-78.5-18.52
	c-40.83-16.96-80.56-41.54-146.28-41.67c-65.72-0.13-148.2,31.64-148.2,31.64s47.88-9.11,100.43-3.7
	C154.55,360.91,193.33,375.91,233.94,390.41z"/>
<linearGradient id="SVGID_1_" gradientUnits="userSpaceOnUse" x1="16.519" y1="476.3357" x2="484.0112" y2="476.3357">
	<stop  offset="0" style="stop-color:#18848E"/>
	<stop  offset="0.2857" style="stop-color:#15858A"/>
	<stop  offset="0.2906" style="stop-color:#178686"/>
	<stop  offset="1" style="stop-color:#349637"/>
</linearGradient>
<path class="st4" d="M17.56,472.34c0,0,43.36-23.01,119.3-9.79c56.2,9.79,60.32,3.86,80.42-0.81c2.44-0.56,15.03-3.83,36.35,2.48
	c20.95,6.2,22.03,17.79,137.75-1.2c64.65-10.61,92.64,23.5,92.64,23.5s-34.16-12.14-67.18-7.25c-33.03,4.89-82.93,14.32-104.5,14.91
	c-33.12,0.9-57.28-12.31-72.15-13.6c-11.43-0.99-27.42-3.46-61.57,3.47c-40.29,8.18-70.36,12.11-162.1-11.71"/>
<g>
</g>
<g>
	<path class="st5" d="M-0.31,514.95h27.65v87.2c0,7.51,0.7,12.82,2.12,15.94c1.41,3.11,3.74,5.6,6.99,7.47
		c3.25,1.86,7.17,2.79,11.76,2.79c4.85,0,9.04-1.04,12.55-3.11c3.51-2.08,5.94-4.72,7.28-7.92c1.34-3.21,2.02-9.33,2.02-18.36
		v-83.99h27.65v80.39c0,13.57-0.82,22.98-2.46,28.23c-1.64,5.26-4.77,10.33-9.4,15.22c-4.63,4.89-9.96,8.51-15.99,10.86
		c-6.04,2.35-13.06,3.53-21.06,3.53c-10.5,0-19.63-2.25-27.41-6.74c-7.77-4.49-13.33-10.11-16.68-16.87
		c-3.35-6.75-5.02-18.16-5.02-34.24V514.95z"/>
	<path class="st5" d="M129.59,514.95h29.23c15.81,0,27.21,1.36,34.2,4.08c6.99,2.72,12.5,7.12,16.53,13.2
		c4.03,6.08,6.05,13.37,6.05,21.86c0,9.41-2.64,17.23-7.92,23.47c-5.28,6.23-12.45,10.57-21.5,13.02
		c-5.31,1.41-14.99,2.11-29.03,2.11v57.11h-27.55V514.95z M157.14,567.66h8.76c6.89,0,11.68-0.46,14.37-1.38
		c2.69-0.92,4.8-2.44,6.35-4.55c1.54-2.12,2.31-4.67,2.31-7.68c0-5.21-2.17-9.01-6.49-11.41c-3.15-1.78-8.99-2.67-17.52-2.67h-7.77
		V567.66z"/>
	<path class="st5" d="M286.72,514.95h27.94l55.67,134.84H341.7l-11.33-27.77h-59.07l-11.78,27.77H230.9L286.72,514.95z
		 M300.87,550.7l-19.42,46.29h38.73L300.87,550.7z"/>
	<path class="st5" d="M524.69,538.65l-19.27,17.11c-13.11-12.91-27.86-19.36-44.24-19.36c-13.83,0-25.48,4.4-34.95,13.21
		c-9.47,8.81-14.21,19.67-14.21,32.57c0,8.99,2.1,16.98,6.29,23.95s10.13,12.45,17.8,16.42c7.67,3.98,16.19,5.96,25.56,5.96
		c8,0,15.3-1.39,21.92-4.17c6.62-2.78,13.9-7.84,21.83-15.18l18.68,18.16c-10.69,9.72-20.8,16.46-30.31,20.22
		c-9.51,3.76-20.37,5.64-32.57,5.64c-22.5,0-40.92-6.65-55.25-19.94c-14.33-13.29-21.5-30.33-21.5-51.1
		c0-13.44,3.26-25.39,9.79-35.84c6.53-10.45,15.88-18.85,28.05-25.21c12.17-6.35,25.27-9.53,39.31-9.53
		c11.94,0,23.44,2.35,34.49,7.05S516.69,529.98,524.69,538.65z"/>
</g>
<g>
</g>
<g>
</g>
<g>
</g>
<g>
</g>
<g>
</g>
<g>
</g>
</svg>
