<svg id="Calque_1" data-name="Calque 1" xmlns="http://www.w3.org/2000/svg" viewBox="0 0 548.12 707.35"><defs><style>.cls-1{fill-rule:evenodd;}.cls-2{font-size:187.73px;font-family:CenturyGothic-Bold, Century Gothic;font-weight:700;}</style></defs><title>upac56-1-black</title><path class="cls-1" d="M12.54,536.33" transform="translate(15.86)"/><path class="cls-1" d="M42.56,319.82C124.66,228.4,162.69,121.18,167.29,0c4.6,5.93,8.64,11.07,12.6,16.27S187.74,26.73,191.62,32C206.21,51.76,218,73.26,229.31,95a287.24,287.24,0,0,1,23.73,63c3.42,13.56,4.88,27.69,6.36,41.65a245.45,245.45,0,0,1,1.05,31.28c-.45,20-3.88,39.44-13,57.41-5.18,10.22-11.41,19.91-17.2,29.82-.67,1.14-1.5,2.19-2.29,3.32-8.78-7.51-16.45-15.45-27.2-17.67a261.35,261.35,0,0,0-32.08-4.17,146.57,146.57,0,0,0-24,0A338.08,338.08,0,0,0,108.65,304c-18.68,3.62-37.19,8.19-55.74,12.46C49.83,317.19,46.88,318.41,42.56,319.82Z" transform="translate(15.86)"/><path class="cls-1" d="M23.36,461.4c-6.07,0-14.69,1.47-20.31,1.09-1.23-.08-.29-3.49-.35-4.76-.59-11.42,0-23.65-.39-35.08-.38-10,.52-18.8,0-29.81,4.5,0,6.47-.47,10.73-.47,5.49,0,11,0,16.49,0,23.39,0,46.77.11,70.15,0q63.15-.37,126.29-1c2.15,0,4.29-.51,8-1-7.58-3-13.74-5.74-20.1-7.85-19-6.3-37.78-13.18-57.08-18.23-14.93-3.9-30.45-5.68-45.8-7.81a219,219,0,0,0-28.15-2c-13-.12-26,0-38.86,1-11.88.92-23.66,3.18-35.5,4.73a11.93,11.93,0,0,1-6.88-1.11c6.55-2.93,13-6.15,19.69-8.73,9.09-3.5,18.19-7.2,27.6-9.57,13.56-3.41,27.34-6.13,41.15-8.36a412.57,412.57,0,0,1,41-4.88,206.34,206.34,0,0,1,32.78.9A383.13,383.13,0,0,1,205,334.6c17.44,3.68,33.9,10.56,50.25,17.65,25.39,11,50.75,22.25,77.91,28.29,12.88,2.86,26,4.81,39,6.83,41.56,6.43,83.44,3.32,125.19,4,.82,0,1.64.08,2.83.14a34.12,34.12,0,0,1,.36,3.83c-.31,20.93-.67,41.87-.95,62.8,0,2.89-.68,3.56-4,3.49-10.24-.21-20.51.32-30.76.79-4.08.19-5.79-.58-6.61-5.36-4.16-24.28-20.44-37-43.11-42.59-19.41-4.81-37.67-1.93-54.18,9.83-12.62,9-19.45,21.4-21.59,37.05-11,0-21.95.09-32.91-.14-1,0-2.62-1.94-2.75-3.11-2.28-20.67-14.55-33.43-32.89-40.92-11.27-4.6-23-6-35.43-5.11-13,.93-24.76,4.13-35.49,11.26-11.71,7.78-19.38,18.29-21.34,32.52-.33,2.39-1.43,3.77-4.26,3.56-10.52-.79-21.07-1.27-31.58-2.23-1.72-.16-4.35-1.88-4.72-3.34-3.69-14.59-12.57-25-25.53-32-22.3-12-44.88-12.07-66.75.64C31.38,430.85,24.45,444.34,23.36,461.4Z" transform="translate(15.86)"/><path class="cls-1" d="M241.22,335.77c.6-2.79.56-4.9,1.47-6.44,6.66-11.36,13.31-22.74,20.47-33.79,1.54-2.38,4.93-4.13,7.82-5,19-5.65,38-11.47,57.2-16.24,13.89-3.44,28.13-5.57,42.29-7.85,16.14-2.59,32.33-4.87,48.55-6.94,8.47-1.09,17.06-1.25,25.57-2.16,9.43-1,18.82-2.4,28.23-3.58,4.07-.52,8.15-1.15,12.24-1.32q16.89-.71,33.79-1c6.51-.11,8.11,2.24,4.49,7.31-8.18,11.43-16.5,22.81-25.48,33.61a227,227,0,0,1-22.93,23.89c-8,7.18-16.48,14.16-25.73,19.55-10.6,6.16-22.86,7.06-34.72,3.93-16.63-4.39-32.89-10.21-49.56-14.41-11.34-2.86-23.11-4.09-34.71-5.91-19.13-3-37.48,1-55.62,6.49-9.66,2.94-19.3,6-29,8.92C244.56,335.16,243.43,335.31,241.22,335.77Z" transform="translate(15.86)"/><path class="cls-1" d="M265.42,342.84c6.57-2.08,13-4.73,19.74-6.11,9.43-1.93,19-4,28.58-4.1,21.41-.26,42.06,4.74,62.5,11,16.62,5.07,33.35,10.15,50.38,13.39,10.33,2,21.33.22,32,.55,12.13.38,23.08-3.77,34.05-8.05.4-.16.95.09,2.7.31-3.17,2.84-5.5,5.38-8.26,7.31-12.91,9-27.48,13.87-42.69,17.36-16.83,3.86-33.9,3.61-50.84,2.73-23.33-1.2-40.8-3.54-65.47-8.93-8.72-1.9-21-6.2-29.46-9.07-7-2.37-13.43-6.22-20.17-9.29-4.26-1.94-8.62-3.65-12.93-5.46Z" transform="translate(15.86)"/><path class="cls-1" d="M408.27,257c-3.79-2.91-7.43-6.08-11.45-8.63a17.25,17.25,0,0,0-8-2.82c-13.55-.67-26.78,1.85-39.95,4.72-5.73,1.25-11.52,2.22-17.2,3.62a19.38,19.38,0,0,0-12.91,9.83c-1.9,3.49-4.72,5.31-8.57,6.55-11.6,3.75-23,8-34.53,12.06a9,9,0,0,1-2.38-.12c4.53-7.71,8.79-15,13.14-22.32,3.5-5.88,6.75-12,10.81-17.42a16.47,16.47,0,0,1,8.36-5.91c11.95-3.1,24-5.7,36.17-8.07a238.54,238.54,0,0,1,26.15-3.86c3.27-.27,7.14,1.13,10,2.91,12.17,7.47,22.21,17.39,31.18,28.43Z" transform="translate(15.86)"/><path class="cls-1" d="M380.41,58.8a94.33,94.33,0,0,0-68.28,159.42c7.28-1,18.56-2.54,21-3l14.75-2.67s20.3-5.89,30.44-.28,25.14,17.61,25.14,17.61l14.2,9.91a94.34,94.34,0,0,0-37.25-181Z" transform="translate(15.86)"/><path class="cls-1" d="M233.94,390.41s43.29,13.5,85.2,12,71.19-12.8,71.19-12.8l-15.78-1.88s-37.67-1.55-78.5-18.52-80.56-41.53-146.28-41.67S1.57,359.19,1.57,359.19s47.87-9.11,100.43-3.7S193.33,375.91,233.94,390.41Z" transform="translate(15.86)"/><path class="cls-1" d="M17.56,472.34s43.35-23,119.29-9.79c56.2,9.79,60.32,3.86,80.42-.81,2.43-.56,15-3.83,36.35,2.48,20.95,6.2,22,17.78,137.75-1.2C456,452.41,484,486.52,484,486.52s-34.16-12.15-67.18-7.25-82.93,14.32-104.5,14.9c-33.11.91-57.28-12.31-72.14-13.59-11.43-1-27.42-3.47-61.57,3.47-40.29,8.18-70.36,12.11-162.1-11.71" transform="translate(15.86)"/><text x="15.86"/><text class="cls-2" transform="translate(0 649.79) scale(1.07 1)">UPAC</text></svg>